<svg width="20" height="20" viewBox="0 0 20 20" fill="none" xmlns="http://www.w3.org/2000/svg">
<path d="M19.947 7.17901C19.8841 6.99388 19.7685 6.83121 19.6142 6.71107C19.4599 6.59094 19.2739 6.51861 19.079 6.50301L13.378 6.05001L10.911 0.589014C10.8324 0.413127 10.7046 0.263736 10.543 0.158872C10.3815 0.0540081 10.193 -0.00184725 10.0003 -0.00195297C9.80769 -0.0020587 9.61914 0.0535897 9.45743 0.158276C9.29572 0.262963 9.16776 0.412213 9.089 0.588015L6.622 6.05001L0.921003 6.50301C0.729459 6.51819 0.546341 6.58822 0.393558 6.70475C0.240775 6.82127 0.124796 6.97934 0.0594965 7.16004C-0.00580327 7.34075 -0.0176588 7.53645 0.0253483 7.72372C0.0683555 7.91099 0.164404 8.0819 0.302004 8.21601L4.515 12.323L3.025 18.775C2.97976 18.9703 2.99426 19.1747 3.06662 19.3617C3.13898 19.5486 3.26587 19.7095 3.43081 19.8235C3.59574 19.9374 3.79112 19.9991 3.99159 20.0007C4.19205 20.0022 4.38835 19.9434 4.555 19.832L10 16.202L15.445 19.832C15.6153 19.9451 15.8162 20.0033 16.0206 19.9988C16.225 19.9944 16.4232 19.9274 16.5884 19.8069C16.7536 19.6865 16.878 19.5183 16.9448 19.3251C17.0116 19.1318 17.0176 18.9228 16.962 18.726L15.133 12.326L19.669 8.24401C19.966 7.97601 20.075 7.55801 19.947 7.17901Z" fill="#F8D832"/>
</svg>
